<svg xmlns="http://www.w3.org/2000/svg" width="1320.6" height="764" viewBox="0 0 1320.6 764" font-family="system-ui, -apple-system, 'Hiragino Sans', 'Noto Sans JP', 'Yu Gothic', sans-serif"><rect width="100%" height="100%" fill="#ffffff"/><defs><marker id="arrow-2563eb" viewBox="0 0 10 10" refX="9" refY="5" markerWidth="7" markerHeight="7" orient="auto-start-reverse"><path d="M 0 0 L 10 5 L 0 10 z" fill="#2563eb"/></marker><marker id="arrow-dc2626" viewBox="0 0 10 10" refX="9" refY="5" markerWidth="7" markerHeight="7" orient="auto-start-reverse"><path d="M 0 0 L 10 5 L 0 10 z" fill="#dc2626"/></marker><marker id="arrow-e11d48" viewBox="0 0 10 10" refX="9" refY="5" markerWidth="7" markerHeight="7" orient="auto-start-reverse"><path d="M 0 0 L 10 5 L 0 10 z" fill="#e11d48"/></marker><marker id="arrow-9333ea" viewBox="0 0 10 10" refX="9" refY="5" markerWidth="7" markerHeight="7" orient="auto-start-reverse"><path d="M 0 0 L 10 5 L 0 10 z" fill="#9333ea"/></marker></defs><text x="16" y="24" font-size="17" font-weight="600" fill="#0f172a" font-family="system-ui, -apple-system, 'Hiragino Sans', 'Noto Sans JP', 'Yu Gothic', sans-serif">ライブラリ利用の例</text><g transform="translate(0 34)"><rect x="24" y="24" width="199" height="328" rx="8" fill="#f8fafc" stroke="#94a3b8" stroke-width="1" stroke-dasharray="4 3"/><text x="36" y="42" font-size="12" fill="#64748b" font-family="system-ui, -apple-system, 'Hiragino Sans', 'Noto Sans JP', 'Yu Gothic', sans-serif">ステージ</text><rect x="325" y="24" width="971.6" height="652" rx="8" fill="#f8fafc" stroke="#94a3b8" stroke-width="1" stroke-dasharray="4 3"/><text x="337" y="42" font-size="12" fill="#64748b" font-family="system-ui, -apple-system, 'Hiragino Sans', 'Noto Sans JP', 'Yu Gothic', sans-serif">メインラック</text><polyline points="199,104.5 591,104.5" fill="none" stroke="#2563eb" stroke-width="2" stroke-linejoin="round" marker-end="url(#arrow-2563eb)"/><rect x="366.3" y="97.5" width="57.5" height="14" rx="3" fill="#ffffff" fill-opacity="0.9"/><text x="395" y="107.5" font-size="10" fill="#64748b" text-anchor="middle" font-family="system-ui, -apple-system, 'Hiragino Sans', 'Noto Sans JP', 'Yu Gothic', sans-serif">V-01  10m</text><polyline points="199,206.5 239,206.5 239,126.5 591,126.5" fill="none" stroke="#dc2626" stroke-width="2" stroke-linejoin="round" marker-end="url(#arrow-dc2626)"/><rect x="386.3" y="119.5" width="57.5" height="14" rx="3" fill="#ffffff" fill-opacity="0.9"/><text x="415" y="129.5" font-size="10" fill="#64748b" text-anchor="middle" font-family="system-ui, -apple-system, 'Hiragino Sans', 'Noto Sans JP', 'Yu Gothic', sans-serif">V-02  10m</text><polyline points="199,308.5 239,308.5 239,280.5 349,280.5" fill="none" stroke="#2563eb" stroke-width="2" stroke-linejoin="round" marker-end="url(#arrow-2563eb)"/><rect x="265.3" y="273.5" width="57.5" height="14" rx="3" fill="#ffffff" fill-opacity="0.9"/><text x="294" y="283.5" font-size="10" fill="#64748b" text-anchor="middle" font-family="system-ui, -apple-system, 'Hiragino Sans', 'Noto Sans JP', 'Yu Gothic', sans-serif">A-01  20m</text><polyline points="501,280.5 591,280.5" fill="none" stroke="#2563eb" stroke-width="2" stroke-linejoin="round" marker-end="url(#arrow-2563eb)"/><rect x="520" y="273.5" width="52" height="14" rx="3" fill="#ffffff" fill-opacity="0.9"/><text x="546" y="283.5" font-size="10" fill="#64748b" text-anchor="middle" font-family="system-ui, -apple-system, 'Hiragino Sans', 'Noto Sans JP', 'Yu Gothic', sans-serif">A-10  3m</text><polyline points="743,104.5 833,104.5" fill="none" stroke="#e11d48" stroke-width="2" stroke-linejoin="round" marker-end="url(#arrow-e11d48)"/><rect x="762" y="97.5" width="52" height="14" rx="3" fill="#ffffff" fill-opacity="0.9"/><text x="788" y="107.5" font-size="10" fill="#64748b" text-anchor="middle" font-family="system-ui, -apple-system, 'Hiragino Sans', 'Noto Sans JP', 'Yu Gothic', sans-serif">V-10  1m</text><polyline points="985,104.5 1075,104.5" fill="none" stroke="#e11d48" stroke-width="2" stroke-linejoin="round" marker-end="url(#arrow-e11d48)"/><rect x="1004" y="97.5" width="52" height="14" rx="3" fill="#ffffff" fill-opacity="0.9"/><text x="1030" y="107.5" font-size="10" fill="#64748b" text-anchor="middle" font-family="system-ui, -apple-system, 'Hiragino Sans', 'Noto Sans JP', 'Yu Gothic', sans-serif">V-11  2m</text><polyline points="743,126.5 763,126.5 763,228.5 833,228.5" fill="none" stroke="#e11d48" stroke-width="2" stroke-linejoin="round" marker-end="url(#arrow-e11d48)"/><rect x="772" y="221.5" width="52" height="14" rx="3" fill="#ffffff" fill-opacity="0.9"/><text x="798" y="231.5" font-size="10" fill="#64748b" text-anchor="middle" font-family="system-ui, -apple-system, 'Hiragino Sans', 'Noto Sans JP', 'Yu Gothic', sans-serif">V-12  1m</text><polyline points="985,228.5 1075,228.5" fill="none" stroke="#e11d48" stroke-width="2" stroke-linejoin="round" marker-end="url(#arrow-e11d48)"/><rect x="1004" y="221.5" width="52" height="14" rx="3" fill="#ffffff" fill-opacity="0.9"/><text x="1030" y="231.5" font-size="10" fill="#64748b" text-anchor="middle" font-family="system-ui, -apple-system, 'Hiragino Sans', 'Noto Sans JP', 'Yu Gothic', sans-serif">V-13  2m</text><polyline points="743,170.5 753,170.5 753,352.5 833,352.5" fill="none" stroke="#9333ea" stroke-width="2" stroke-linejoin="round" marker-end="url(#arrow-9333ea)"/><rect x="767" y="345.5" width="52" height="14" rx="3" fill="#ffffff" fill-opacity="0.9"/><text x="793" y="355.5" font-size="10" fill="#64748b" text-anchor="middle" font-family="system-ui, -apple-system, 'Hiragino Sans', 'Noto Sans JP', 'Yu Gothic', sans-serif">N-01  5m</text><rect x="48" y="62" width="150" height="62" rx="6" fill="#ffffff" stroke="#334155" stroke-width="1.5"/><path d="M 48 92 h 150" stroke="#334155" stroke-width="1"/><rect x="49" y="63" width="148" height="29" rx="5" fill="#f1f5f9"/><text x="123" y="81" font-size="13" font-weight="600" fill="#0f172a" text-anchor="middle" font-family="system-ui, -apple-system, 'Hiragino Sans', 'Noto Sans JP', 'Yu Gothic', sans-serif">SONY FX3</text><circle cx="198" cy="104" r="3" fill="#334155"/><text x="190" y="107.5" font-size="10" fill="#64748b" text-anchor="end" font-family="system-ui, -apple-system, 'Hiragino Sans', 'Noto Sans JP', 'Yu Gothic', sans-serif">HDMI</text><rect x="48" y="164" width="150" height="62" rx="6" fill="#ffffff" stroke="#334155" stroke-width="1.5"/><path d="M 48 194 h 150" stroke="#334155" stroke-width="1"/><rect x="49" y="165" width="148" height="29" rx="5" fill="#f1f5f9"/><text x="123" y="183" font-size="13" font-weight="600" fill="#0f172a" text-anchor="middle" font-family="system-ui, -apple-system, 'Hiragino Sans', 'Noto Sans JP', 'Yu Gothic', sans-serif">SONY FX30</text><circle cx="198" cy="206" r="3" fill="#334155"/><text x="190" y="209.5" font-size="10" fill="#64748b" text-anchor="end" font-family="system-ui, -apple-system, 'Hiragino Sans', 'Noto Sans JP', 'Yu Gothic', sans-serif">HDMI</text><rect x="48" y="266" width="150" height="62" rx="6" fill="#ffffff" stroke="#334155" stroke-width="1.5"/><path d="M 48 296 h 150" stroke="#334155" stroke-width="1"/><rect x="49" y="267" width="148" height="29" rx="5" fill="#f1f5f9"/><text x="123" y="285" font-size="13" font-weight="600" fill="#0f172a" text-anchor="middle" font-family="system-ui, -apple-system, 'Hiragino Sans', 'Noto Sans JP', 'Yu Gothic', sans-serif">SM58</text><circle cx="198" cy="308" r="3" fill="#334155"/><text x="190" y="311.5" font-size="10" fill="#64748b" text-anchor="end" font-family="system-ui, -apple-system, 'Hiragino Sans', 'Noto Sans JP', 'Yu Gothic', sans-serif">OUT</text><rect x="592" y="62" width="150" height="260" rx="6" fill="#ffffff" stroke="#334155" stroke-width="1.5"/><path d="M 592 92 h 150" stroke="#334155" stroke-width="1"/><rect x="593" y="63" width="148" height="29" rx="5" fill="#f1f5f9"/><text x="667" y="81" font-size="13" font-weight="600" fill="#0f172a" text-anchor="middle" font-family="system-ui, -apple-system, 'Hiragino Sans', 'Noto Sans JP', 'Yu Gothic', sans-serif">ATEM Mini Extreme</text><circle cx="591" cy="104" r="3" fill="#334155"/><text x="599" y="107.5" font-size="10" fill="#64748b" text-anchor="start" font-family="system-ui, -apple-system, 'Hiragino Sans', 'Noto Sans JP', 'Yu Gothic', sans-serif">1</text><circle cx="591" cy="126" r="3" fill="#334155"/><text x="599" y="129.5" font-size="10" fill="#64748b" text-anchor="start" font-family="system-ui, -apple-system, 'Hiragino Sans', 'Noto Sans JP', 'Yu Gothic', sans-serif">2</text><circle cx="591" cy="148" r="3" fill="#334155"/><text x="599" y="151.5" font-size="10" fill="#64748b" text-anchor="start" font-family="system-ui, -apple-system, 'Hiragino Sans', 'Noto Sans JP', 'Yu Gothic', sans-serif">3</text><circle cx="591" cy="170" r="3" fill="#334155"/><text x="599" y="173.5" font-size="10" fill="#64748b" text-anchor="start" font-family="system-ui, -apple-system, 'Hiragino Sans', 'Noto Sans JP', 'Yu Gothic', sans-serif">4</text><circle cx="591" cy="192" r="3" fill="#334155"/><text x="599" y="195.5" font-size="10" fill="#64748b" text-anchor="start" font-family="system-ui, -apple-system, 'Hiragino Sans', 'Noto Sans JP', 'Yu Gothic', sans-serif">5</text><circle cx="591" cy="214" r="3" fill="#334155"/><text x="599" y="217.5" font-size="10" fill="#64748b" text-anchor="start" font-family="system-ui, -apple-system, 'Hiragino Sans', 'Noto Sans JP', 'Yu Gothic', sans-serif">6</text><circle cx="591" cy="236" r="3" fill="#334155"/><text x="599" y="239.5" font-size="10" fill="#64748b" text-anchor="start" font-family="system-ui, -apple-system, 'Hiragino Sans', 'Noto Sans JP', 'Yu Gothic', sans-serif">7</text><circle cx="591" cy="258" r="3" fill="#334155"/><text x="599" y="261.5" font-size="10" fill="#64748b" text-anchor="start" font-family="system-ui, -apple-system, 'Hiragino Sans', 'Noto Sans JP', 'Yu Gothic', sans-serif">8</text><circle cx="591" cy="280" r="3" fill="#334155"/><text x="599" y="283.5" font-size="10" fill="#64748b" text-anchor="start" font-family="system-ui, -apple-system, 'Hiragino Sans', 'Noto Sans JP', 'Yu Gothic', sans-serif">MIC1</text><circle cx="591" cy="302" r="3" fill="#334155"/><text x="599" y="305.5" font-size="10" fill="#64748b" text-anchor="start" font-family="system-ui, -apple-system, 'Hiragino Sans', 'Noto Sans JP', 'Yu Gothic', sans-serif">MIC2</text><circle cx="742" cy="104" r="3" fill="#334155"/><text x="734" y="107.5" font-size="10" fill="#64748b" text-anchor="end" font-family="system-ui, -apple-system, 'Hiragino Sans', 'Noto Sans JP', 'Yu Gothic', sans-serif">PGM</text><circle cx="742" cy="126" r="3" fill="#334155"/><text x="734" y="129.5" font-size="10" fill="#64748b" text-anchor="end" font-family="system-ui, -apple-system, 'Hiragino Sans', 'Noto Sans JP', 'Yu Gothic', sans-serif">AUX1</text><circle cx="742" cy="148" r="3" fill="#334155"/><text x="734" y="151.5" font-size="10" fill="#64748b" text-anchor="end" font-family="system-ui, -apple-system, 'Hiragino Sans', 'Noto Sans JP', 'Yu Gothic', sans-serif">WEBCAM</text><circle cx="742" cy="170" r="3" fill="#334155"/><text x="734" y="173.5" font-size="10" fill="#64748b" text-anchor="end" font-family="system-ui, -apple-system, 'Hiragino Sans', 'Noto Sans JP', 'Yu Gothic', sans-serif">STREAM</text><circle cx="742" cy="192" r="3" fill="#334155"/><text x="734" y="195.5" font-size="10" fill="#64748b" text-anchor="end" font-family="system-ui, -apple-system, 'Hiragino Sans', 'Noto Sans JP', 'Yu Gothic', sans-serif">CTRL</text><rect x="350" y="238" width="150" height="414" rx="6" fill="#ffffff" stroke="#334155" stroke-width="1.5"/><path d="M 350 268 h 150" stroke="#334155" stroke-width="1"/><rect x="351" y="239" width="148" height="29" rx="5" fill="#f1f5f9"/><text x="425" y="257" font-size="13" font-weight="600" fill="#0f172a" text-anchor="middle" font-family="system-ui, -apple-system, 'Hiragino Sans', 'Noto Sans JP', 'Yu Gothic', sans-serif">Yamaha DM3</text><circle cx="349" cy="280" r="3" fill="#334155"/><text x="357" y="283.5" font-size="10" fill="#64748b" text-anchor="start" font-family="system-ui, -apple-system, 'Hiragino Sans', 'Noto Sans JP', 'Yu Gothic', sans-serif">CH1</text><circle cx="349" cy="302" r="3" fill="#334155"/><text x="357" y="305.5" font-size="10" fill="#64748b" text-anchor="start" font-family="system-ui, -apple-system, 'Hiragino Sans', 'Noto Sans JP', 'Yu Gothic', sans-serif">CH2</text><circle cx="349" cy="324" r="3" fill="#334155"/><text x="357" y="327.5" font-size="10" fill="#64748b" text-anchor="start" font-family="system-ui, -apple-system, 'Hiragino Sans', 'Noto Sans JP', 'Yu Gothic', sans-serif">CH3</text><circle cx="349" cy="346" r="3" fill="#334155"/><text x="357" y="349.5" font-size="10" fill="#64748b" text-anchor="start" font-family="system-ui, -apple-system, 'Hiragino Sans', 'Noto Sans JP', 'Yu Gothic', sans-serif">CH4</text><circle cx="349" cy="368" r="3" fill="#334155"/><text x="357" y="371.5" font-size="10" fill="#64748b" text-anchor="start" font-family="system-ui, -apple-system, 'Hiragino Sans', 'Noto Sans JP', 'Yu Gothic', sans-serif">CH5</text><circle cx="349" cy="390" r="3" fill="#334155"/><text x="357" y="393.5" font-size="10" fill="#64748b" text-anchor="start" font-family="system-ui, -apple-system, 'Hiragino Sans', 'Noto Sans JP', 'Yu Gothic', sans-serif">CH6</text><circle cx="349" cy="412" r="3" fill="#334155"/><text x="357" y="415.5" font-size="10" fill="#64748b" text-anchor="start" font-family="system-ui, -apple-system, 'Hiragino Sans', 'Noto Sans JP', 'Yu Gothic', sans-serif">CH7</text><circle cx="349" cy="434" r="3" fill="#334155"/><text x="357" y="437.5" font-size="10" fill="#64748b" text-anchor="start" font-family="system-ui, -apple-system, 'Hiragino Sans', 'Noto Sans JP', 'Yu Gothic', sans-serif">CH8</text><circle cx="349" cy="456" r="3" fill="#334155"/><text x="357" y="459.5" font-size="10" fill="#64748b" text-anchor="start" font-family="system-ui, -apple-system, 'Hiragino Sans', 'Noto Sans JP', 'Yu Gothic', sans-serif">CH9</text><circle cx="349" cy="478" r="3" fill="#334155"/><text x="357" y="481.5" font-size="10" fill="#64748b" text-anchor="start" font-family="system-ui, -apple-system, 'Hiragino Sans', 'Noto Sans JP', 'Yu Gothic', sans-serif">CH10</text><circle cx="349" cy="500" r="3" fill="#334155"/><text x="357" y="503.5" font-size="10" fill="#64748b" text-anchor="start" font-family="system-ui, -apple-system, 'Hiragino Sans', 'Noto Sans JP', 'Yu Gothic', sans-serif">CH11</text><circle cx="349" cy="522" r="3" fill="#334155"/><text x="357" y="525.5" font-size="10" fill="#64748b" text-anchor="start" font-family="system-ui, -apple-system, 'Hiragino Sans', 'Noto Sans JP', 'Yu Gothic', sans-serif">CH12</text><circle cx="349" cy="544" r="3" fill="#334155"/><text x="357" y="547.5" font-size="10" fill="#64748b" text-anchor="start" font-family="system-ui, -apple-system, 'Hiragino Sans', 'Noto Sans JP', 'Yu Gothic', sans-serif">CH13</text><circle cx="349" cy="566" r="3" fill="#334155"/><text x="357" y="569.5" font-size="10" fill="#64748b" text-anchor="start" font-family="system-ui, -apple-system, 'Hiragino Sans', 'Noto Sans JP', 'Yu Gothic', sans-serif">CH14</text><circle cx="349" cy="588" r="3" fill="#334155"/><text x="357" y="591.5" font-size="10" fill="#64748b" text-anchor="start" font-family="system-ui, -apple-system, 'Hiragino Sans', 'Noto Sans JP', 'Yu Gothic', sans-serif">CH15</text><circle cx="349" cy="610" r="3" fill="#334155"/><text x="357" y="613.5" font-size="10" fill="#64748b" text-anchor="start" font-family="system-ui, -apple-system, 'Hiragino Sans', 'Noto Sans JP', 'Yu Gothic', sans-serif">CH16</text><circle cx="349" cy="632" r="3" fill="#334155"/><text x="357" y="635.5" font-size="10" fill="#64748b" text-anchor="start" font-family="system-ui, -apple-system, 'Hiragino Sans', 'Noto Sans JP', 'Yu Gothic', sans-serif">WORD_IN</text><circle cx="500" cy="280" r="3" fill="#334155"/><text x="492" y="283.5" font-size="10" fill="#64748b" text-anchor="end" font-family="system-ui, -apple-system, 'Hiragino Sans', 'Noto Sans JP', 'Yu Gothic', sans-serif">L</text><circle cx="500" cy="302" r="3" fill="#334155"/><text x="492" y="305.5" font-size="10" fill="#64748b" text-anchor="end" font-family="system-ui, -apple-system, 'Hiragino Sans', 'Noto Sans JP', 'Yu Gothic', sans-serif">R</text><circle cx="500" cy="324" r="3" fill="#334155"/><text x="492" y="327.5" font-size="10" fill="#64748b" text-anchor="end" font-family="system-ui, -apple-system, 'Hiragino Sans', 'Noto Sans JP', 'Yu Gothic', sans-serif">AUX1</text><circle cx="500" cy="346" r="3" fill="#334155"/><text x="492" y="349.5" font-size="10" fill="#64748b" text-anchor="end" font-family="system-ui, -apple-system, 'Hiragino Sans', 'Noto Sans JP', 'Yu Gothic', sans-serif">AUX2</text><circle cx="500" cy="368" r="3" fill="#334155"/><text x="492" y="371.5" font-size="10" fill="#64748b" text-anchor="end" font-family="system-ui, -apple-system, 'Hiragino Sans', 'Noto Sans JP', 'Yu Gothic', sans-serif">AUX3</text><circle cx="500" cy="390" r="3" fill="#334155"/><text x="492" y="393.5" font-size="10" fill="#64748b" text-anchor="end" font-family="system-ui, -apple-system, 'Hiragino Sans', 'Noto Sans JP', 'Yu Gothic', sans-serif">AUX4</text><circle cx="500" cy="412" r="3" fill="#334155"/><text x="492" y="415.5" font-size="10" fill="#64748b" text-anchor="end" font-family="system-ui, -apple-system, 'Hiragino Sans', 'Noto Sans JP', 'Yu Gothic', sans-serif">AUX5</text><circle cx="500" cy="434" r="3" fill="#334155"/><text x="492" y="437.5" font-size="10" fill="#64748b" text-anchor="end" font-family="system-ui, -apple-system, 'Hiragino Sans', 'Noto Sans JP', 'Yu Gothic', sans-serif">AUX6</text><circle cx="500" cy="456" r="3" fill="#334155"/><text x="492" y="459.5" font-size="10" fill="#64748b" text-anchor="end" font-family="system-ui, -apple-system, 'Hiragino Sans', 'Noto Sans JP', 'Yu Gothic', sans-serif">DANTE</text><circle cx="500" cy="478" r="3" fill="#334155"/><text x="492" y="481.5" font-size="10" fill="#64748b" text-anchor="end" font-family="system-ui, -apple-system, 'Hiragino Sans', 'Noto Sans JP', 'Yu Gothic', sans-serif">NETWORK</text><rect x="1076" y="62" width="195.6" height="84" rx="6" fill="#ffffff" stroke="#334155" stroke-width="1.5"/><path d="M 1076 92 h 195.6" stroke="#334155" stroke-width="1"/><rect x="1077" y="63" width="193.6" height="29" rx="5" fill="#f1f5f9"/><text x="1173.8" y="81" font-size="13" font-weight="600" fill="#0f172a" text-anchor="middle" font-family="system-ui, -apple-system, 'Hiragino Sans', 'Noto Sans JP', 'Yu Gothic', sans-serif">HyperDeck Studio HD Mini</text><circle cx="1075" cy="104" r="3" fill="#334155"/><text x="1083" y="107.5" font-size="10" fill="#64748b" text-anchor="start" font-family="system-ui, -apple-system, 'Hiragino Sans', 'Noto Sans JP', 'Yu Gothic', sans-serif">SDI</text><circle cx="1075" cy="126" r="3" fill="#334155"/><text x="1083" y="129.5" font-size="10" fill="#64748b" text-anchor="start" font-family="system-ui, -apple-system, 'Hiragino Sans', 'Noto Sans JP', 'Yu Gothic', sans-serif">REF</text><circle cx="1271.6" cy="104" r="3" fill="#334155"/><text x="1263.6" y="107.5" font-size="10" fill="#64748b" text-anchor="end" font-family="system-ui, -apple-system, 'Hiragino Sans', 'Noto Sans JP', 'Yu Gothic', sans-serif">SDI_OUT</text><circle cx="1271.6" cy="126" r="3" fill="#334155"/><text x="1263.6" y="129.5" font-size="10" fill="#64748b" text-anchor="end" font-family="system-ui, -apple-system, 'Hiragino Sans', 'Noto Sans JP', 'Yu Gothic', sans-serif">ETH</text><rect x="1076" y="186" width="150" height="84" rx="6" fill="#ffffff" stroke="#334155" stroke-width="1.5"/><path d="M 1076 216 h 150" stroke="#334155" stroke-width="1"/><rect x="1077" y="187" width="148" height="29" rx="5" fill="#f1f5f9"/><text x="1151" y="205" font-size="13" font-weight="600" fill="#0f172a" text-anchor="middle" font-family="system-ui, -apple-system, 'Hiragino Sans', 'Noto Sans JP', 'Yu Gothic', sans-serif">HyperDeck (予備)</text><circle cx="1075" cy="228" r="3" fill="#334155"/><text x="1083" y="231.5" font-size="10" fill="#64748b" text-anchor="start" font-family="system-ui, -apple-system, 'Hiragino Sans', 'Noto Sans JP', 'Yu Gothic', sans-serif">SDI</text><circle cx="1075" cy="250" r="3" fill="#334155"/><text x="1083" y="253.5" font-size="10" fill="#64748b" text-anchor="start" font-family="system-ui, -apple-system, 'Hiragino Sans', 'Noto Sans JP', 'Yu Gothic', sans-serif">REF</text><circle cx="1226" cy="228" r="3" fill="#334155"/><text x="1218" y="231.5" font-size="10" fill="#64748b" text-anchor="end" font-family="system-ui, -apple-system, 'Hiragino Sans', 'Noto Sans JP', 'Yu Gothic', sans-serif">SDI_OUT</text><circle cx="1226" cy="250" r="3" fill="#334155"/><text x="1218" y="253.5" font-size="10" fill="#64748b" text-anchor="end" font-family="system-ui, -apple-system, 'Hiragino Sans', 'Noto Sans JP', 'Yu Gothic', sans-serif">ETH</text><rect x="834" y="62" width="150" height="84" rx="6" fill="#ffffff" stroke="#334155" stroke-width="1.5"/><path d="M 834 92 h 150" stroke="#334155" stroke-width="1"/><rect x="835" y="63" width="148" height="29" rx="5" fill="#f1f5f9"/><text x="909" y="81" font-size="13" font-weight="600" fill="#0f172a" text-anchor="middle" font-family="system-ui, -apple-system, 'Hiragino Sans', 'Noto Sans JP', 'Yu Gothic', sans-serif">変換器 1</text><circle cx="833" cy="104" r="3" fill="#334155"/><text x="841" y="107.5" font-size="10" fill="#64748b" text-anchor="start" font-family="system-ui, -apple-system, 'Hiragino Sans', 'Noto Sans JP', 'Yu Gothic', sans-serif">HDMI</text><circle cx="833" cy="126" r="3" fill="#334155"/><text x="841" y="129.5" font-size="10" fill="#64748b" text-anchor="start" font-family="system-ui, -apple-system, 'Hiragino Sans', 'Noto Sans JP', 'Yu Gothic', sans-serif">DC</text><circle cx="984" cy="104" r="3" fill="#334155"/><text x="976" y="107.5" font-size="10" fill="#64748b" text-anchor="end" font-family="system-ui, -apple-system, 'Hiragino Sans', 'Noto Sans JP', 'Yu Gothic', sans-serif">SDI</text><circle cx="984" cy="126" r="3" fill="#334155"/><text x="976" y="129.5" font-size="10" fill="#64748b" text-anchor="end" font-family="system-ui, -apple-system, 'Hiragino Sans', 'Noto Sans JP', 'Yu Gothic', sans-serif">SDI_2</text><rect x="834" y="186" width="150" height="84" rx="6" fill="#ffffff" stroke="#334155" stroke-width="1.5"/><path d="M 834 216 h 150" stroke="#334155" stroke-width="1"/><rect x="835" y="187" width="148" height="29" rx="5" fill="#f1f5f9"/><text x="909" y="205" font-size="13" font-weight="600" fill="#0f172a" text-anchor="middle" font-family="system-ui, -apple-system, 'Hiragino Sans', 'Noto Sans JP', 'Yu Gothic', sans-serif">変換器 2</text><circle cx="833" cy="228" r="3" fill="#334155"/><text x="841" y="231.5" font-size="10" fill="#64748b" text-anchor="start" font-family="system-ui, -apple-system, 'Hiragino Sans', 'Noto Sans JP', 'Yu Gothic', sans-serif">HDMI</text><circle cx="833" cy="250" r="3" fill="#334155"/><text x="841" y="253.5" font-size="10" fill="#64748b" text-anchor="start" font-family="system-ui, -apple-system, 'Hiragino Sans', 'Noto Sans JP', 'Yu Gothic', sans-serif">DC</text><circle cx="984" cy="228" r="3" fill="#334155"/><text x="976" y="231.5" font-size="10" fill="#64748b" text-anchor="end" font-family="system-ui, -apple-system, 'Hiragino Sans', 'Noto Sans JP', 'Yu Gothic', sans-serif">SDI</text><circle cx="984" cy="250" r="3" fill="#334155"/><text x="976" y="253.5" font-size="10" fill="#64748b" text-anchor="end" font-family="system-ui, -apple-system, 'Hiragino Sans', 'Noto Sans JP', 'Yu Gothic', sans-serif">SDI_2</text><rect x="834" y="310" width="150" height="62" rx="6" fill="#ffffff" stroke="#334155" stroke-width="1.5"/><path d="M 834 340 h 150" stroke="#334155" stroke-width="1"/><rect x="835" y="311" width="148" height="29" rx="5" fill="#f1f5f9"/><text x="909" y="329" font-size="13" font-weight="600" fill="#0f172a" text-anchor="middle" font-family="system-ui, -apple-system, 'Hiragino Sans', 'Noto Sans JP', 'Yu Gothic', sans-serif">配信PC</text><circle cx="833" cy="352" r="3" fill="#334155"/><text x="841" y="355.5" font-size="10" fill="#64748b" text-anchor="start" font-family="system-ui, -apple-system, 'Hiragino Sans', 'Noto Sans JP', 'Yu Gothic', sans-serif">LAN</text></g><path d="M 16 752 h 22" stroke="#e11d48" stroke-width="2"/><text x="43" y="756" font-size="11" fill="#64748b" font-family="system-ui, -apple-system, 'Hiragino Sans', 'Noto Sans JP', 'Yu Gothic', sans-serif">HDMI</text><path d="M 89.2 752 h 22" stroke="#9333ea" stroke-width="2"/><text x="116.2" y="756" font-size="11" fill="#64748b" font-family="system-ui, -apple-system, 'Hiragino Sans', 'Noto Sans JP', 'Yu Gothic', sans-serif">LAN</text><path d="M 156.4 752 h 22" stroke="#e11d48" stroke-width="2"/><text x="183.4" y="756" font-size="11" fill="#64748b" font-family="system-ui, -apple-system, 'Hiragino Sans', 'Noto Sans JP', 'Yu Gothic', sans-serif">SDI</text><path d="M 223.5 752 h 22" stroke="#2563eb" stroke-width="2"/><text x="250.5" y="756" font-size="11" fill="#64748b" font-family="system-ui, -apple-system, 'Hiragino Sans', 'Noto Sans JP', 'Yu Gothic', sans-serif">XLR</text></svg>